%TF.GenerationSoftware,KiCad,Pcbnew,(6.0.10-0)*%
%TF.CreationDate,2023-02-17T12:23:12-08:00*%
%TF.ProjectId,exercise 4-2,65786572-6369-4736-9520-342d322e6b69,rev?*%
%TF.SameCoordinates,Original*%
%TF.FileFunction,Copper,L2,Bot*%
%TF.FilePolarity,Positive*%
%FSLAX46Y46*%
G04 Gerber Fmt 4.6, Leading zero omitted, Abs format (unit mm)*
G04 Created by KiCad (PCBNEW (6.0.10-0)) date 2023-02-17 12:23:12*
%MOMM*%
%LPD*%
G01*
G04 APERTURE LIST*
%TA.AperFunction,ComponentPad*%
%ADD10R,3.000000X3.000000*%
%TD*%
%TA.AperFunction,ComponentPad*%
%ADD11C,3.000000*%
%TD*%
%TA.AperFunction,ViaPad*%
%ADD12C,0.800000*%
%TD*%
%TA.AperFunction,Conductor*%
%ADD13C,0.250000*%
%TD*%
G04 APERTURE END LIST*
D10*
%TO.P,J1,1,Pin_1*%
%TO.N,+9V*%
X124460000Y-71120000D03*
D11*
%TO.P,J1,2,Pin_2*%
%TO.N,GND*%
X129540000Y-71120000D03*
%TD*%
D12*
%TO.N,/pin_2*%
X139700000Y-74422000D03*
X141986000Y-78232000D03*
X137160000Y-74676000D03*
X138430000Y-70612000D03*
X147574000Y-71882000D03*
%TO.N,GND*%
X132715000Y-74295000D03*
X137795000Y-69215000D03*
%TO.N,+9V*%
X138684000Y-72898000D03*
X151257000Y-69215000D03*
X131064000Y-64516000D03*
X140716000Y-74930000D03*
%TO.N,/pin_7*%
X136398000Y-63500000D03*
X147701000Y-70485000D03*
%TO.N,/pin_3*%
X137033000Y-71755000D03*
X153690000Y-79736000D03*
%TD*%
D13*
%TO.N,/pin_2*%
X136308000Y-73824000D02*
X136308000Y-71454695D01*
X137160000Y-74676000D02*
X136308000Y-73824000D01*
X138430000Y-70612000D02*
X137959000Y-71083000D01*
X147574000Y-71882000D02*
X147574000Y-78232000D01*
X137150695Y-70612000D02*
X138430000Y-70612000D01*
X139446000Y-74676000D02*
X139700000Y-74422000D01*
X138338604Y-73568604D02*
X139446000Y-74676000D01*
X147574000Y-78232000D02*
X141986000Y-78232000D01*
X137959000Y-71083000D02*
X137959000Y-73568604D01*
X136308000Y-71454695D02*
X137150695Y-70612000D01*
X137959000Y-73568604D02*
X138338604Y-73568604D01*
%TO.N,GND*%
X132715000Y-74295000D02*
X137795000Y-69215000D01*
%TO.N,+9V*%
X137414000Y-64516000D02*
X131064000Y-64516000D01*
X139192000Y-66294000D02*
X137414000Y-64516000D01*
X138684000Y-72898000D02*
X139192000Y-72390000D01*
X140716000Y-74930000D02*
X140716000Y-78994000D01*
X139192000Y-72390000D02*
X139192000Y-66294000D01*
X151638000Y-78994000D02*
X151638000Y-69596000D01*
X140716000Y-78994000D02*
X151638000Y-78994000D01*
X151638000Y-69596000D02*
X151257000Y-69215000D01*
%TO.N,/pin_7*%
X136652000Y-63246000D02*
X136398000Y-63500000D01*
X147701000Y-70485000D02*
X147828000Y-70358000D01*
X147828000Y-63246000D02*
X136652000Y-63246000D01*
X147828000Y-70358000D02*
X147828000Y-63246000D01*
%TO.N,/pin_3*%
X139446000Y-78994000D02*
X139446000Y-75692000D01*
X137033000Y-73533000D02*
X137033000Y-71755000D01*
X139446000Y-75692000D02*
X137668000Y-73914000D01*
X153690000Y-79736000D02*
X140188000Y-79736000D01*
X137414000Y-73914000D02*
X137033000Y-73533000D01*
X137668000Y-73914000D02*
X137414000Y-73914000D01*
X140188000Y-79736000D02*
X139446000Y-78994000D01*
%TD*%
M02*
