%TF.GenerationSoftware,KiCad,Pcbnew,(6.0.10-0)*%
%TF.CreationDate,2023-02-17T12:23:12-08:00*%
%TF.ProjectId,exercise 4-2,65786572-6369-4736-9520-342d322e6b69,rev?*%
%TF.SameCoordinates,Original*%
%TF.FileFunction,Copper,L1,Top*%
%TF.FilePolarity,Positive*%
%FSLAX46Y46*%
G04 Gerber Fmt 4.6, Leading zero omitted, Abs format (unit mm)*
G04 Created by KiCad (PCBNEW (6.0.10-0)) date 2023-02-17 12:23:12*
%MOMM*%
%LPD*%
G01*
G04 APERTURE LIST*
G04 Aperture macros list*
%AMRoundRect*
0 Rectangle with rounded corners*
0 $1 Rounding radius*
0 $2 $3 $4 $5 $6 $7 $8 $9 X,Y pos of 4 corners*
0 Add a 4 corners polygon primitive as box body*
4,1,4,$2,$3,$4,$5,$6,$7,$8,$9,$2,$3,0*
0 Add four circle primitives for the rounded corners*
1,1,$1+$1,$2,$3*
1,1,$1+$1,$4,$5*
1,1,$1+$1,$6,$7*
1,1,$1+$1,$8,$9*
0 Add four rect primitives between the rounded corners*
20,1,$1+$1,$2,$3,$4,$5,0*
20,1,$1+$1,$4,$5,$6,$7,0*
20,1,$1+$1,$6,$7,$8,$9,0*
20,1,$1+$1,$8,$9,$2,$3,0*%
G04 Aperture macros list end*
%TA.AperFunction,SMDPad,CuDef*%
%ADD10RoundRect,0.250000X-0.337500X-0.475000X0.337500X-0.475000X0.337500X0.475000X-0.337500X0.475000X0*%
%TD*%
%TA.AperFunction,SMDPad,CuDef*%
%ADD11RoundRect,0.250000X0.350000X0.450000X-0.350000X0.450000X-0.350000X-0.450000X0.350000X-0.450000X0*%
%TD*%
%TA.AperFunction,SMDPad,CuDef*%
%ADD12RoundRect,0.250000X-0.350000X-0.450000X0.350000X-0.450000X0.350000X0.450000X-0.350000X0.450000X0*%
%TD*%
%TA.AperFunction,SMDPad,CuDef*%
%ADD13RoundRect,0.150000X-0.825000X-0.150000X0.825000X-0.150000X0.825000X0.150000X-0.825000X0.150000X0*%
%TD*%
%TA.AperFunction,SMDPad,CuDef*%
%ADD14R,2.290000X3.000000*%
%TD*%
%TA.AperFunction,SMDPad,CuDef*%
%ADD15RoundRect,0.250000X-0.425000X0.537500X-0.425000X-0.537500X0.425000X-0.537500X0.425000X0.537500X0*%
%TD*%
%TA.AperFunction,SMDPad,CuDef*%
%ADD16RoundRect,0.250001X-0.462499X-0.624999X0.462499X-0.624999X0.462499X0.624999X-0.462499X0.624999X0*%
%TD*%
%TA.AperFunction,SMDPad,CuDef*%
%ADD17RoundRect,0.250000X-0.450000X0.350000X-0.450000X-0.350000X0.450000X-0.350000X0.450000X0.350000X0*%
%TD*%
%TA.AperFunction,ComponentPad*%
%ADD18R,3.000000X3.000000*%
%TD*%
%TA.AperFunction,ComponentPad*%
%ADD19C,3.000000*%
%TD*%
%TA.AperFunction,SMDPad,CuDef*%
%ADD20RoundRect,0.250001X0.624999X-0.462499X0.624999X0.462499X-0.624999X0.462499X-0.624999X-0.462499X0*%
%TD*%
%TA.AperFunction,ViaPad*%
%ADD21C,0.800000*%
%TD*%
%TA.AperFunction,Conductor*%
%ADD22C,0.250000*%
%TD*%
G04 APERTURE END LIST*
D10*
%TO.P,C2,1*%
%TO.N,Net-(C2-Pad1)*%
X140448760Y-82180000D03*
%TO.P,C2,2*%
%TO.N,GND*%
X142523760Y-82180000D03*
%TD*%
D11*
%TO.P,R4,1*%
%TO.N,/pin_3*%
X154081192Y-82275000D03*
%TO.P,R4,2*%
%TO.N,Net-(D2-Pad2)*%
X152081192Y-82275000D03*
%TD*%
D12*
%TO.P,R1,1*%
%TO.N,+9V*%
X131080000Y-63500000D03*
%TO.P,R1,2*%
%TO.N,/pin_7*%
X133080000Y-63500000D03*
%TD*%
D13*
%TO.P,U1,1,GND*%
%TO.N,GND*%
X140682500Y-69215000D03*
%TO.P,U1,2,TR*%
%TO.N,/pin_2*%
X140682500Y-70485000D03*
%TO.P,U1,3,Q*%
%TO.N,/pin_3*%
X140682500Y-71755000D03*
%TO.P,U1,4,R*%
%TO.N,+9V*%
X140682500Y-73025000D03*
%TO.P,U1,5,CV*%
%TO.N,Net-(C2-Pad1)*%
X145632500Y-73025000D03*
%TO.P,U1,6,THR*%
%TO.N,/pin_2*%
X145632500Y-71755000D03*
%TO.P,U1,7,DIS*%
%TO.N,/pin_7*%
X145632500Y-70485000D03*
%TO.P,U1,8,VCC*%
%TO.N,+9V*%
X145632500Y-69215000D03*
D14*
%TO.P,U1,9*%
%TO.N,N/C*%
X143157500Y-71120000D03*
%TD*%
D15*
%TO.P,C1,1*%
%TO.N,/pin_2*%
X137160000Y-76200000D03*
%TO.P,C1,2*%
%TO.N,GND*%
X137160000Y-79075000D03*
%TD*%
D16*
%TO.P,D2,1,K*%
%TO.N,GND*%
X144727500Y-82360000D03*
%TO.P,D2,2,A*%
%TO.N,Net-(D2-Pad2)*%
X147702500Y-82360000D03*
%TD*%
D17*
%TO.P,R2,1*%
%TO.N,/pin_7*%
X149868808Y-72058808D03*
%TO.P,R2,2*%
%TO.N,/pin_2*%
X149868808Y-74058808D03*
%TD*%
D18*
%TO.P,J1,1,Pin_1*%
%TO.N,+9V*%
X124460000Y-71120000D03*
D19*
%TO.P,J1,2,Pin_2*%
%TO.N,GND*%
X129540000Y-71120000D03*
%TD*%
D20*
%TO.P,D1,1,K*%
%TO.N,Net-(D1-Pad1)*%
X153785000Y-72607500D03*
%TO.P,D1,2,A*%
%TO.N,+9V*%
X153785000Y-69632500D03*
%TD*%
D17*
%TO.P,R3,1*%
%TO.N,Net-(D1-Pad1)*%
X153690000Y-76285872D03*
%TO.P,R3,2*%
%TO.N,/pin_3*%
X153690000Y-78285872D03*
%TD*%
D21*
%TO.N,/pin_2*%
X139700000Y-74422000D03*
X141986000Y-78232000D03*
X137160000Y-74676000D03*
X138430000Y-70612000D03*
X147574000Y-71882000D03*
%TO.N,GND*%
X132715000Y-74295000D03*
X137795000Y-69215000D03*
%TO.N,+9V*%
X138684000Y-72898000D03*
X151257000Y-69215000D03*
X131064000Y-64516000D03*
X140716000Y-74930000D03*
%TO.N,/pin_7*%
X136398000Y-63500000D03*
X147701000Y-70485000D03*
%TO.N,/pin_3*%
X137033000Y-71755000D03*
X153690000Y-79736000D03*
%TD*%
D22*
%TO.N,/pin_2*%
X138557000Y-70485000D02*
X138430000Y-70612000D01*
X137160000Y-76200000D02*
X137160000Y-74676000D01*
X147574000Y-71882000D02*
X147447000Y-71755000D01*
X149750808Y-74058808D02*
X147574000Y-71882000D01*
X147447000Y-71755000D02*
X145632500Y-71755000D01*
X139700000Y-75946000D02*
X139700000Y-74422000D01*
X140682500Y-70485000D02*
X138557000Y-70485000D01*
X141986000Y-78232000D02*
X139700000Y-75946000D01*
X149868808Y-74058808D02*
X149750808Y-74058808D01*
%TO.N,GND*%
X132715000Y-74295000D02*
X137160000Y-78740000D01*
X140682500Y-69215000D02*
X137795000Y-69215000D01*
X144727500Y-82360000D02*
X142703760Y-82360000D01*
X129540000Y-71120000D02*
X132715000Y-74295000D01*
X139083760Y-78740000D02*
X142523760Y-82180000D01*
X137160000Y-78740000D02*
X139083760Y-78740000D01*
X142703760Y-82360000D02*
X142523760Y-82180000D01*
%TO.N,Net-(C2-Pad1)*%
X141828760Y-83560000D02*
X145428172Y-83560000D01*
X145428172Y-83560000D02*
X145765000Y-83223172D01*
X145765000Y-73157500D02*
X145632500Y-73025000D01*
X140448760Y-82180000D02*
X141828760Y-83560000D01*
X145765000Y-83223172D02*
X145765000Y-73157500D01*
%TO.N,Net-(D1-Pad1)*%
X153785000Y-76190872D02*
X153785000Y-72607500D01*
X153690000Y-76285872D02*
X153785000Y-76190872D01*
%TO.N,+9V*%
X131064000Y-64516000D02*
X131080000Y-64500000D01*
X124460000Y-71120000D02*
X131064000Y-64516000D01*
X153367500Y-69215000D02*
X151257000Y-69215000D01*
X140682500Y-74896500D02*
X140716000Y-74930000D01*
X138684000Y-72898000D02*
X138811000Y-73025000D01*
X153785000Y-69632500D02*
X153367500Y-69215000D01*
X131080000Y-64500000D02*
X131080000Y-63500000D01*
X140682500Y-73025000D02*
X140682500Y-74896500D01*
X151257000Y-69215000D02*
X145632500Y-69215000D01*
X140682500Y-73025000D02*
X138811000Y-73025000D01*
%TO.N,Net-(D2-Pad2)*%
X147702500Y-82360000D02*
X147787500Y-82275000D01*
X147787500Y-82275000D02*
X152081192Y-82275000D01*
%TO.N,/pin_7*%
X147701000Y-70485000D02*
X145632500Y-70485000D01*
X133080000Y-63500000D02*
X136398000Y-63500000D01*
X149274808Y-72058808D02*
X147701000Y-70485000D01*
X149868808Y-72058808D02*
X149274808Y-72058808D01*
%TO.N,/pin_3*%
X153690000Y-79736000D02*
X153690000Y-78285872D01*
X140682500Y-71755000D02*
X137033000Y-71755000D01*
X154081192Y-82275000D02*
X153690000Y-81883808D01*
X153690000Y-81883808D02*
X153690000Y-79736000D01*
%TD*%
%TA.AperFunction,NonConductor*%
G36*
X158437621Y-61488502D02*
G01*
X158484114Y-61542158D01*
X158495500Y-61594500D01*
X158495500Y-84455500D01*
X158475498Y-84523621D01*
X158421842Y-84570114D01*
X158369500Y-84581500D01*
X118998500Y-84581500D01*
X118930379Y-84561498D01*
X118883886Y-84507842D01*
X118872500Y-84455500D01*
X118872500Y-72668134D01*
X122451500Y-72668134D01*
X122458255Y-72730316D01*
X122509385Y-72866705D01*
X122596739Y-72983261D01*
X122713295Y-73070615D01*
X122849684Y-73121745D01*
X122911866Y-73128500D01*
X126008134Y-73128500D01*
X126070316Y-73121745D01*
X126206705Y-73070615D01*
X126323261Y-72983261D01*
X126410615Y-72866705D01*
X126461745Y-72730316D01*
X126468500Y-72668134D01*
X126468500Y-71098918D01*
X127526917Y-71098918D01*
X127542682Y-71372320D01*
X127543507Y-71376525D01*
X127543508Y-71376533D01*
X127559355Y-71457306D01*
X127595405Y-71641053D01*
X127596792Y-71645103D01*
X127596793Y-71645108D01*
X127659825Y-71829209D01*
X127684112Y-71900144D01*
X127807160Y-72144799D01*
X127809586Y-72148328D01*
X127809589Y-72148334D01*
X127959843Y-72366953D01*
X127962274Y-72370490D01*
X128146582Y-72573043D01*
X128356675Y-72748707D01*
X128360316Y-72750991D01*
X128585024Y-72891951D01*
X128585028Y-72891953D01*
X128588664Y-72894234D01*
X128699539Y-72944296D01*
X128834345Y-73005164D01*
X128834349Y-73005166D01*
X128838257Y-73006930D01*
X128842377Y-73008150D01*
X128842376Y-73008150D01*
X129096723Y-73083491D01*
X129096727Y-73083492D01*
X129100836Y-73084709D01*
X129105070Y-73085357D01*
X129105075Y-73085358D01*
X129367298Y-73125483D01*
X129367300Y-73125483D01*
X129371540Y-73126132D01*
X129510912Y-73128322D01*
X129641071Y-73130367D01*
X129641077Y-73130367D01*
X129645362Y-73130434D01*
X129917235Y-73097534D01*
X130182127Y-73028041D01*
X130365984Y-72951885D01*
X130436571Y-72944296D01*
X130503295Y-72979199D01*
X131767878Y-74243783D01*
X131801904Y-74306095D01*
X131804093Y-74319708D01*
X131818417Y-74455991D01*
X131821458Y-74484928D01*
X131880473Y-74666556D01*
X131883776Y-74672278D01*
X131883777Y-74672279D01*
X131889716Y-74682565D01*
X131975960Y-74831944D01*
X131980378Y-74836851D01*
X131980379Y-74836852D01*
X132026729Y-74888329D01*
X132103747Y-74973866D01*
X132178026Y-75027833D01*
X132227836Y-75064022D01*
X132258248Y-75086118D01*
X132264276Y-75088802D01*
X132264278Y-75088803D01*
X132426681Y-75161109D01*
X132432712Y-75163794D01*
X132522970Y-75182979D01*
X132613056Y-75202128D01*
X132613061Y-75202128D01*
X132619513Y-75203500D01*
X132675406Y-75203500D01*
X132743527Y-75223502D01*
X132764501Y-75240405D01*
X135939595Y-78415499D01*
X135973621Y-78477811D01*
X135976500Y-78504594D01*
X135976500Y-79662900D01*
X135976837Y-79666146D01*
X135976837Y-79666150D01*
X135984766Y-79742565D01*
X135987474Y-79768666D01*
X136043450Y-79936446D01*
X136136522Y-80086848D01*
X136261697Y-80211805D01*
X136267927Y-80215645D01*
X136267928Y-80215646D01*
X136405090Y-80300194D01*
X136412262Y-80304615D01*
X136492005Y-80331064D01*
X136573611Y-80358132D01*
X136573613Y-80358132D01*
X136580139Y-80360297D01*
X136586975Y-80360997D01*
X136586978Y-80360998D01*
X136630031Y-80365409D01*
X136684600Y-80371000D01*
X137635400Y-80371000D01*
X137638646Y-80370663D01*
X137638650Y-80370663D01*
X137734308Y-80360738D01*
X137734312Y-80360737D01*
X137741166Y-80360026D01*
X137747702Y-80357845D01*
X137747704Y-80357845D01*
X137879806Y-80313772D01*
X137908946Y-80304050D01*
X138059348Y-80210978D01*
X138184305Y-80085803D01*
X138277115Y-79935238D01*
X138332797Y-79767361D01*
X138343500Y-79662900D01*
X138343500Y-79499500D01*
X138363502Y-79431379D01*
X138417158Y-79384886D01*
X138469500Y-79373500D01*
X138769166Y-79373500D01*
X138837287Y-79393502D01*
X138858261Y-79410405D01*
X140179261Y-80731405D01*
X140213287Y-80793717D01*
X140208222Y-80864532D01*
X140165675Y-80921368D01*
X140099155Y-80946179D01*
X140090166Y-80946500D01*
X140060860Y-80946500D01*
X140057614Y-80946837D01*
X140057610Y-80946837D01*
X139961952Y-80956762D01*
X139961948Y-80956763D01*
X139955094Y-80957474D01*
X139948558Y-80959655D01*
X139948556Y-80959655D01*
X139816454Y-81003728D01*
X139787314Y-81013450D01*
X139636912Y-81106522D01*
X139511955Y-81231697D01*
X139508115Y-81237927D01*
X139508114Y-81237928D01*
X139437986Y-81351697D01*
X139419145Y-81382262D01*
X139363463Y-81550139D01*
X139352760Y-81654600D01*
X139352760Y-82705400D01*
X139353097Y-82708646D01*
X139353097Y-82708650D01*
X139360355Y-82778598D01*
X139363734Y-82811166D01*
X139365915Y-82817702D01*
X139365915Y-82817704D01*
X139409988Y-82949806D01*
X139419710Y-82978946D01*
X139512782Y-83129348D01*
X139637957Y-83254305D01*
X139644187Y-83258145D01*
X139644188Y-83258146D01*
X139757749Y-83328146D01*
X139788522Y-83347115D01*
X139868265Y-83373564D01*
X139949871Y-83400632D01*
X139949873Y-83400632D01*
X139956399Y-83402797D01*
X139963235Y-83403497D01*
X139963238Y-83403498D01*
X140006291Y-83407909D01*
X140060860Y-83413500D01*
X140734166Y-83413500D01*
X140802287Y-83433502D01*
X140823261Y-83450405D01*
X141325103Y-83952247D01*
X141332647Y-83960537D01*
X141336760Y-83967018D01*
X141342537Y-83972443D01*
X141386427Y-84013658D01*
X141389269Y-84016413D01*
X141408991Y-84036135D01*
X141412133Y-84038572D01*
X141412193Y-84038619D01*
X141421205Y-84046317D01*
X141434640Y-84058933D01*
X141453439Y-84076586D01*
X141460382Y-84080403D01*
X141471191Y-84086345D01*
X141487713Y-84097198D01*
X141503719Y-84109614D01*
X141510997Y-84112764D01*
X141510998Y-84112764D01*
X141544297Y-84127174D01*
X141554947Y-84132391D01*
X141593700Y-84153695D01*
X141601375Y-84155666D01*
X141601376Y-84155666D01*
X141613322Y-84158733D01*
X141632027Y-84165137D01*
X141650615Y-84173181D01*
X141658438Y-84174420D01*
X141658448Y-84174423D01*
X141694284Y-84180099D01*
X141705904Y-84182505D01*
X141737719Y-84190673D01*
X141748730Y-84193500D01*
X141768984Y-84193500D01*
X141788694Y-84195051D01*
X141808703Y-84198220D01*
X141816595Y-84197474D01*
X141835340Y-84195702D01*
X141852722Y-84194059D01*
X141864579Y-84193500D01*
X145349405Y-84193500D01*
X145360588Y-84194027D01*
X145368081Y-84195702D01*
X145376007Y-84195453D01*
X145376008Y-84195453D01*
X145436158Y-84193562D01*
X145440117Y-84193500D01*
X145468028Y-84193500D01*
X145471963Y-84193003D01*
X145472028Y-84192995D01*
X145483865Y-84192062D01*
X145516123Y-84191048D01*
X145520142Y-84190922D01*
X145528061Y-84190673D01*
X145547515Y-84185021D01*
X145566872Y-84181013D01*
X145579102Y-84179468D01*
X145579103Y-84179468D01*
X145586969Y-84178474D01*
X145594340Y-84175555D01*
X145594342Y-84175555D01*
X145628084Y-84162196D01*
X145639314Y-84158351D01*
X145674155Y-84148229D01*
X145674156Y-84148229D01*
X145681765Y-84146018D01*
X145688584Y-84141985D01*
X145688589Y-84141983D01*
X145699200Y-84135707D01*
X145716948Y-84127012D01*
X145735789Y-84119552D01*
X145771559Y-84093564D01*
X145781479Y-84087048D01*
X145808342Y-84071161D01*
X145819534Y-84064542D01*
X145825141Y-84058936D01*
X145833857Y-84050220D01*
X145848891Y-84037379D01*
X145858867Y-84030131D01*
X145858868Y-84030130D01*
X145865279Y-84025472D01*
X145893460Y-83991407D01*
X145901450Y-83982626D01*
X146157258Y-83726819D01*
X146165537Y-83719285D01*
X146172018Y-83715172D01*
X146218645Y-83665519D01*
X146221399Y-83662678D01*
X146241135Y-83642942D01*
X146243615Y-83639745D01*
X146251320Y-83630723D01*
X146276159Y-83604272D01*
X146281586Y-83598493D01*
X146285405Y-83591547D01*
X146285407Y-83591544D01*
X146291348Y-83580738D01*
X146302199Y-83564219D01*
X146309758Y-83554473D01*
X146314614Y-83548213D01*
X146317759Y-83540944D01*
X146317762Y-83540940D01*
X146332174Y-83507635D01*
X146337391Y-83496985D01*
X146358695Y-83458232D01*
X146363733Y-83438609D01*
X146370137Y-83419905D01*
X146370348Y-83419419D01*
X146375954Y-83406464D01*
X146421364Y-83351891D01*
X146489071Y-83330531D01*
X146557578Y-83349167D01*
X146598732Y-83390200D01*
X146641522Y-83459348D01*
X146766697Y-83584305D01*
X146772927Y-83588145D01*
X146772928Y-83588146D01*
X146910090Y-83672694D01*
X146917262Y-83677115D01*
X146997005Y-83703564D01*
X147078611Y-83730632D01*
X147078613Y-83730632D01*
X147085139Y-83732797D01*
X147091975Y-83733497D01*
X147091978Y-83733498D01*
X147135031Y-83737909D01*
X147189600Y-83743500D01*
X148215400Y-83743500D01*
X148218646Y-83743163D01*
X148218650Y-83743163D01*
X148314307Y-83733238D01*
X148314311Y-83733237D01*
X148321165Y-83732526D01*
X148327701Y-83730345D01*
X148327703Y-83730345D01*
X148459805Y-83686272D01*
X148488945Y-83676550D01*
X148639348Y-83583478D01*
X148668303Y-83554473D01*
X148759134Y-83463483D01*
X148764305Y-83458303D01*
X148769080Y-83450556D01*
X148853275Y-83313968D01*
X148853276Y-83313966D01*
X148857115Y-83307738D01*
X148895132Y-83193120D01*
X148910632Y-83146389D01*
X148910632Y-83146387D01*
X148912797Y-83139861D01*
X148923500Y-83035400D01*
X148923500Y-83032181D01*
X148923664Y-83028972D01*
X148925102Y-83029045D01*
X148943502Y-82966379D01*
X148997158Y-82919886D01*
X149049500Y-82908500D01*
X150901995Y-82908500D01*
X150970116Y-82928502D01*
X151016609Y-82982158D01*
X151021518Y-82994623D01*
X151036190Y-83038598D01*
X151039642Y-83048946D01*
X151132714Y-83199348D01*
X151257889Y-83324305D01*
X151264119Y-83328145D01*
X151264120Y-83328146D01*
X151401282Y-83412694D01*
X151408454Y-83417115D01*
X151457860Y-83433502D01*
X151569803Y-83470632D01*
X151569805Y-83470632D01*
X151576331Y-83472797D01*
X151583167Y-83473497D01*
X151583170Y-83473498D01*
X151626223Y-83477909D01*
X151680792Y-83483500D01*
X152481592Y-83483500D01*
X152484838Y-83483163D01*
X152484842Y-83483163D01*
X152580500Y-83473238D01*
X152580504Y-83473237D01*
X152587358Y-83472526D01*
X152593894Y-83470345D01*
X152593896Y-83470345D01*
X152745082Y-83419905D01*
X152755138Y-83416550D01*
X152905540Y-83323478D01*
X152991976Y-83236891D01*
X153054258Y-83202812D01*
X153125078Y-83207815D01*
X153170167Y-83236736D01*
X153234334Y-83300791D01*
X153257889Y-83324305D01*
X153264119Y-83328145D01*
X153264120Y-83328146D01*
X153401282Y-83412694D01*
X153408454Y-83417115D01*
X153457860Y-83433502D01*
X153569803Y-83470632D01*
X153569805Y-83470632D01*
X153576331Y-83472797D01*
X153583167Y-83473497D01*
X153583170Y-83473498D01*
X153626223Y-83477909D01*
X153680792Y-83483500D01*
X154481592Y-83483500D01*
X154484838Y-83483163D01*
X154484842Y-83483163D01*
X154580500Y-83473238D01*
X154580504Y-83473237D01*
X154587358Y-83472526D01*
X154593894Y-83470345D01*
X154593896Y-83470345D01*
X154745082Y-83419905D01*
X154755138Y-83416550D01*
X154905540Y-83323478D01*
X154928188Y-83300791D01*
X155025326Y-83203483D01*
X155030497Y-83198303D01*
X155034338Y-83192072D01*
X155119467Y-83053968D01*
X155119468Y-83053966D01*
X155123307Y-83047738D01*
X155162856Y-82928502D01*
X155176824Y-82886389D01*
X155176824Y-82886387D01*
X155178989Y-82879861D01*
X155189692Y-82775400D01*
X155189692Y-81774600D01*
X155178718Y-81668834D01*
X155175043Y-81657817D01*
X155125060Y-81508002D01*
X155122742Y-81501054D01*
X155029670Y-81350652D01*
X154904495Y-81225695D01*
X154892706Y-81218428D01*
X154760160Y-81136725D01*
X154760158Y-81136724D01*
X154753930Y-81132885D01*
X154660374Y-81101854D01*
X154592581Y-81079368D01*
X154592579Y-81079368D01*
X154586053Y-81077203D01*
X154579217Y-81076503D01*
X154579214Y-81076502D01*
X154536161Y-81072091D01*
X154481592Y-81066500D01*
X154449500Y-81066500D01*
X154381379Y-81046498D01*
X154334886Y-80992842D01*
X154323500Y-80940500D01*
X154323500Y-80438524D01*
X154343502Y-80370403D01*
X154355858Y-80354221D01*
X154429040Y-80272944D01*
X154524527Y-80107556D01*
X154583542Y-79925928D01*
X154603504Y-79736000D01*
X154583542Y-79546072D01*
X154534927Y-79396452D01*
X154532899Y-79325485D01*
X154569562Y-79264687D01*
X154588457Y-79250372D01*
X154608120Y-79238204D01*
X154614348Y-79234350D01*
X154739305Y-79109175D01*
X154743146Y-79102944D01*
X154828275Y-78964840D01*
X154828276Y-78964838D01*
X154832115Y-78958610D01*
X154887797Y-78790733D01*
X154890030Y-78768944D01*
X154898172Y-78689470D01*
X154898500Y-78686272D01*
X154898500Y-77885472D01*
X154898163Y-77882222D01*
X154888238Y-77786564D01*
X154888237Y-77786560D01*
X154887526Y-77779706D01*
X154864636Y-77711095D01*
X154833868Y-77618874D01*
X154831550Y-77611926D01*
X154738478Y-77461524D01*
X154651891Y-77375088D01*
X154617812Y-77312806D01*
X154622815Y-77241986D01*
X154651736Y-77196897D01*
X154734134Y-77114355D01*
X154739305Y-77109175D01*
X154765630Y-77066468D01*
X154828275Y-76964840D01*
X154828276Y-76964838D01*
X154832115Y-76958610D01*
X154887797Y-76790733D01*
X154898500Y-76686272D01*
X154898500Y-75885472D01*
X154893660Y-75838821D01*
X154888238Y-75786564D01*
X154888237Y-75786560D01*
X154887526Y-75779706D01*
X154867980Y-75721118D01*
X154833868Y-75618874D01*
X154831550Y-75611926D01*
X154738478Y-75461524D01*
X154613303Y-75336567D01*
X154606420Y-75332324D01*
X154478384Y-75253401D01*
X154430890Y-75200628D01*
X154418500Y-75146141D01*
X154418500Y-73946450D01*
X154438502Y-73878329D01*
X154492158Y-73831836D01*
X154531496Y-73821123D01*
X154537780Y-73820471D01*
X154559306Y-73818238D01*
X154559309Y-73818237D01*
X154566165Y-73817526D01*
X154572701Y-73815345D01*
X154572703Y-73815345D01*
X154718227Y-73766794D01*
X154733945Y-73761550D01*
X154884348Y-73668478D01*
X155009305Y-73543303D01*
X155069637Y-73445427D01*
X155098275Y-73398968D01*
X155098276Y-73398966D01*
X155102115Y-73392738D01*
X155142022Y-73272421D01*
X155155632Y-73231389D01*
X155155632Y-73231387D01*
X155157797Y-73224861D01*
X155168500Y-73120400D01*
X155168500Y-72094600D01*
X155167569Y-72085625D01*
X155158238Y-71995693D01*
X155158237Y-71995689D01*
X155157526Y-71988835D01*
X155142878Y-71944928D01*
X155103868Y-71828003D01*
X155101550Y-71821055D01*
X155008478Y-71670652D01*
X154883303Y-71545695D01*
X154877072Y-71541854D01*
X154738968Y-71456725D01*
X154738966Y-71456724D01*
X154732738Y-71452885D01*
X154572254Y-71399655D01*
X154571389Y-71399368D01*
X154571387Y-71399368D01*
X154564861Y-71397203D01*
X154558025Y-71396503D01*
X154558022Y-71396502D01*
X154512225Y-71391810D01*
X154460400Y-71386500D01*
X153109600Y-71386500D01*
X153106354Y-71386837D01*
X153106350Y-71386837D01*
X153010693Y-71396762D01*
X153010689Y-71396763D01*
X153003835Y-71397474D01*
X152997299Y-71399655D01*
X152997297Y-71399655D01*
X152904374Y-71430657D01*
X152836055Y-71453450D01*
X152685652Y-71546522D01*
X152560695Y-71671697D01*
X152467885Y-71822262D01*
X152465581Y-71829209D01*
X152429376Y-71938365D01*
X152412203Y-71990139D01*
X152401500Y-72094600D01*
X152401500Y-73120400D01*
X152401837Y-73123646D01*
X152401837Y-73123650D01*
X152407505Y-73178273D01*
X152412474Y-73226165D01*
X152414655Y-73232701D01*
X152414655Y-73232703D01*
X152453654Y-73349595D01*
X152468450Y-73393945D01*
X152561522Y-73544348D01*
X152566704Y-73549521D01*
X152599046Y-73581807D01*
X152686697Y-73669305D01*
X152692927Y-73673145D01*
X152692928Y-73673146D01*
X152830090Y-73757694D01*
X152837262Y-73762115D01*
X152857634Y-73768872D01*
X152998611Y-73815632D01*
X152998613Y-73815632D01*
X153005139Y-73817797D01*
X153011977Y-73818498D01*
X153011979Y-73818498D01*
X153038342Y-73821199D01*
X153104070Y-73848040D01*
X153144852Y-73906155D01*
X153151500Y-73946543D01*
X153151500Y-75074980D01*
X153131498Y-75143101D01*
X153077842Y-75189594D01*
X153065376Y-75194504D01*
X153047020Y-75200628D01*
X152916054Y-75244322D01*
X152765652Y-75337394D01*
X152640695Y-75462569D01*
X152547885Y-75613134D01*
X152545581Y-75620081D01*
X152512069Y-75721118D01*
X152492203Y-75781011D01*
X152481500Y-75885472D01*
X152481500Y-76686272D01*
X152481837Y-76689518D01*
X152481837Y-76689522D01*
X152491711Y-76784683D01*
X152492474Y-76792038D01*
X152548450Y-76959818D01*
X152641522Y-77110220D01*
X152646704Y-77115393D01*
X152728109Y-77196656D01*
X152762188Y-77258938D01*
X152757185Y-77329758D01*
X152728264Y-77374847D01*
X152678005Y-77425194D01*
X152640695Y-77462569D01*
X152636855Y-77468799D01*
X152636854Y-77468800D01*
X152584870Y-77553134D01*
X152547885Y-77613134D01*
X152492203Y-77781011D01*
X152491503Y-77787847D01*
X152491502Y-77787850D01*
X152487091Y-77830903D01*
X152481500Y-77885472D01*
X152481500Y-78686272D01*
X152481837Y-78689518D01*
X152481837Y-78689522D01*
X152490078Y-78768944D01*
X152492474Y-78792038D01*
X152548450Y-78959818D01*
X152641522Y-79110220D01*
X152766697Y-79235177D01*
X152772929Y-79239019D01*
X152772931Y-79239020D01*
X152791324Y-79250358D01*
X152838817Y-79303130D01*
X152850239Y-79373202D01*
X152845040Y-79396553D01*
X152796458Y-79546072D01*
X152776496Y-79736000D01*
X152796458Y-79925928D01*
X152855473Y-80107556D01*
X152950960Y-80272944D01*
X153024137Y-80354215D01*
X153054853Y-80418221D01*
X153056500Y-80438524D01*
X153056500Y-81093710D01*
X153036498Y-81161831D01*
X152982842Y-81208324D01*
X152912568Y-81218428D01*
X152864384Y-81200970D01*
X152760160Y-81136725D01*
X152760158Y-81136724D01*
X152753930Y-81132885D01*
X152660374Y-81101854D01*
X152592581Y-81079368D01*
X152592579Y-81079368D01*
X152586053Y-81077203D01*
X152579217Y-81076503D01*
X152579214Y-81076502D01*
X152536161Y-81072091D01*
X152481592Y-81066500D01*
X151680792Y-81066500D01*
X151677546Y-81066837D01*
X151677542Y-81066837D01*
X151581884Y-81076762D01*
X151581880Y-81076763D01*
X151575026Y-81077474D01*
X151568490Y-81079655D01*
X151568488Y-81079655D01*
X151436386Y-81123728D01*
X151407246Y-81133450D01*
X151256844Y-81226522D01*
X151251671Y-81231704D01*
X151190031Y-81293451D01*
X151131887Y-81351697D01*
X151128047Y-81357927D01*
X151128046Y-81357928D01*
X151116887Y-81376032D01*
X151039077Y-81502262D01*
X151025362Y-81543611D01*
X151021529Y-81555168D01*
X150981098Y-81613527D01*
X150915534Y-81640764D01*
X150901936Y-81641500D01*
X149024223Y-81641500D01*
X148956102Y-81621498D01*
X148909609Y-81567842D01*
X148904699Y-81555376D01*
X148884901Y-81496032D01*
X148856550Y-81411055D01*
X148763478Y-81260652D01*
X148734480Y-81231704D01*
X148643483Y-81140866D01*
X148638303Y-81135695D01*
X148632072Y-81131854D01*
X148493968Y-81046725D01*
X148493966Y-81046724D01*
X148487738Y-81042885D01*
X148390344Y-81010581D01*
X148326389Y-80989368D01*
X148326387Y-80989368D01*
X148319861Y-80987203D01*
X148313025Y-80986503D01*
X148313022Y-80986502D01*
X148269969Y-80982091D01*
X148215400Y-80976500D01*
X147189600Y-80976500D01*
X147186354Y-80976837D01*
X147186350Y-80976837D01*
X147090693Y-80986762D01*
X147090689Y-80986763D01*
X147083835Y-80987474D01*
X147077299Y-80989655D01*
X147077297Y-80989655D01*
X146996159Y-81016725D01*
X146916055Y-81043450D01*
X146765652Y-81136522D01*
X146640695Y-81261697D01*
X146636853Y-81267929D01*
X146636852Y-81267931D01*
X146631759Y-81276193D01*
X146578987Y-81323686D01*
X146508915Y-81335108D01*
X146443792Y-81306834D01*
X146404292Y-81247840D01*
X146398500Y-81210076D01*
X146398500Y-73959480D01*
X146418502Y-73891359D01*
X146472158Y-73844866D01*
X146519565Y-73833577D01*
X146521530Y-73833500D01*
X146524002Y-73833500D01*
X146526453Y-73833307D01*
X146526455Y-73833307D01*
X146554921Y-73831067D01*
X146554926Y-73831066D01*
X146561331Y-73830562D01*
X146661269Y-73801528D01*
X146713488Y-73786357D01*
X146713490Y-73786356D01*
X146721101Y-73784145D01*
X146790447Y-73743134D01*
X146857480Y-73703491D01*
X146857483Y-73703489D01*
X146864307Y-73699453D01*
X146981953Y-73581807D01*
X146985989Y-73574983D01*
X146985991Y-73574980D01*
X147062608Y-73445427D01*
X147066645Y-73438601D01*
X147113062Y-73278831D01*
X147116000Y-73241502D01*
X147116000Y-72866400D01*
X147136002Y-72798279D01*
X147189658Y-72751786D01*
X147259932Y-72741682D01*
X147280939Y-72746568D01*
X147285681Y-72748109D01*
X147291712Y-72750794D01*
X147298168Y-72752166D01*
X147298167Y-72752166D01*
X147472056Y-72789128D01*
X147472061Y-72789128D01*
X147478513Y-72790500D01*
X147534406Y-72790500D01*
X147602527Y-72810502D01*
X147623501Y-72827405D01*
X148623403Y-73827307D01*
X148657429Y-73889619D01*
X148660308Y-73916402D01*
X148660308Y-74459208D01*
X148660645Y-74462454D01*
X148660645Y-74462458D01*
X148670011Y-74552721D01*
X148671282Y-74564974D01*
X148673463Y-74571510D01*
X148673463Y-74571512D01*
X148706133Y-74669435D01*
X148727258Y-74732754D01*
X148820330Y-74883156D01*
X148945505Y-75008113D01*
X148951735Y-75011953D01*
X148951736Y-75011954D01*
X149088898Y-75096502D01*
X149096070Y-75100923D01*
X149133582Y-75113365D01*
X149257419Y-75154440D01*
X149257421Y-75154440D01*
X149263947Y-75156605D01*
X149270783Y-75157305D01*
X149270786Y-75157306D01*
X149307906Y-75161109D01*
X149368408Y-75167308D01*
X150369208Y-75167308D01*
X150372454Y-75166971D01*
X150372458Y-75166971D01*
X150468116Y-75157046D01*
X150468120Y-75157045D01*
X150474974Y-75156334D01*
X150481510Y-75154153D01*
X150481512Y-75154153D01*
X150631175Y-75104221D01*
X150642754Y-75100358D01*
X150793156Y-75007286D01*
X150918113Y-74882111D01*
X150924214Y-74872214D01*
X151007083Y-74737776D01*
X151007084Y-74737774D01*
X151010923Y-74731546D01*
X151066605Y-74563669D01*
X151077308Y-74459208D01*
X151077308Y-73658408D01*
X151076971Y-73655158D01*
X151067046Y-73559500D01*
X151067045Y-73559496D01*
X151066334Y-73552642D01*
X151063219Y-73543303D01*
X151012676Y-73391810D01*
X151010358Y-73384862D01*
X150917286Y-73234460D01*
X150830699Y-73148024D01*
X150796620Y-73085742D01*
X150801623Y-73014922D01*
X150830544Y-72969833D01*
X150912942Y-72887291D01*
X150918113Y-72882111D01*
X150923180Y-72873891D01*
X151007083Y-72737776D01*
X151007084Y-72737774D01*
X151010923Y-72731546D01*
X151040283Y-72643029D01*
X151064440Y-72570197D01*
X151064440Y-72570195D01*
X151066605Y-72563669D01*
X151077308Y-72459208D01*
X151077308Y-71658408D01*
X151075928Y-71645108D01*
X151067046Y-71559500D01*
X151067045Y-71559496D01*
X151066334Y-71552642D01*
X151064017Y-71545695D01*
X151012676Y-71391810D01*
X151010358Y-71384862D01*
X150917286Y-71234460D01*
X150792111Y-71109503D01*
X150785880Y-71105662D01*
X150647776Y-71020533D01*
X150647774Y-71020532D01*
X150641546Y-71016693D01*
X150550845Y-70986609D01*
X150480197Y-70963176D01*
X150480195Y-70963176D01*
X150473669Y-70961011D01*
X150466833Y-70960311D01*
X150466830Y-70960310D01*
X150423777Y-70955899D01*
X150369208Y-70950308D01*
X149368408Y-70950308D01*
X149365162Y-70950645D01*
X149365158Y-70950645D01*
X149269500Y-70960570D01*
X149269496Y-70960571D01*
X149262642Y-70961282D01*
X149256108Y-70963462D01*
X149256103Y-70963463D01*
X149194472Y-70984025D01*
X149123522Y-70986609D01*
X149065501Y-70953596D01*
X148648122Y-70536217D01*
X148614096Y-70473905D01*
X148611907Y-70460292D01*
X148595232Y-70301635D01*
X148595232Y-70301633D01*
X148594542Y-70295072D01*
X148535527Y-70113444D01*
X148516861Y-70081113D01*
X148491681Y-70037500D01*
X148474943Y-69968504D01*
X148498164Y-69901413D01*
X148553971Y-69857526D01*
X148600800Y-69848500D01*
X150548800Y-69848500D01*
X150616921Y-69868502D01*
X150636147Y-69884843D01*
X150636420Y-69884540D01*
X150641332Y-69888963D01*
X150645747Y-69893866D01*
X150800248Y-70006118D01*
X150806276Y-70008802D01*
X150806278Y-70008803D01*
X150968681Y-70081109D01*
X150974712Y-70083794D01*
X151068112Y-70103647D01*
X151155056Y-70122128D01*
X151155061Y-70122128D01*
X151161513Y-70123500D01*
X151352487Y-70123500D01*
X151358939Y-70122128D01*
X151358944Y-70122128D01*
X151445888Y-70103647D01*
X151539288Y-70083794D01*
X151545319Y-70081109D01*
X151707722Y-70008803D01*
X151707724Y-70008802D01*
X151713752Y-70006118D01*
X151868253Y-69893866D01*
X151872668Y-69888963D01*
X151877580Y-69884540D01*
X151878705Y-69885789D01*
X151932014Y-69852949D01*
X151965200Y-69848500D01*
X152275500Y-69848500D01*
X152343621Y-69868502D01*
X152390114Y-69922158D01*
X152401500Y-69974500D01*
X152401500Y-70145400D01*
X152401837Y-70148646D01*
X152401837Y-70148650D01*
X152411362Y-70240444D01*
X152412474Y-70251165D01*
X152414655Y-70257701D01*
X152414655Y-70257703D01*
X152458728Y-70389805D01*
X152468450Y-70418945D01*
X152561522Y-70569348D01*
X152686697Y-70694305D01*
X152692927Y-70698145D01*
X152692928Y-70698146D01*
X152830090Y-70782694D01*
X152837262Y-70787115D01*
X152881922Y-70801928D01*
X152998611Y-70840632D01*
X152998613Y-70840632D01*
X153005139Y-70842797D01*
X153011975Y-70843497D01*
X153011978Y-70843498D01*
X153043993Y-70846778D01*
X153109600Y-70853500D01*
X154460400Y-70853500D01*
X154463646Y-70853163D01*
X154463650Y-70853163D01*
X154559307Y-70843238D01*
X154559311Y-70843237D01*
X154566165Y-70842526D01*
X154572701Y-70840345D01*
X154572703Y-70840345D01*
X154704805Y-70796272D01*
X154733945Y-70786550D01*
X154884348Y-70693478D01*
X155009305Y-70568303D01*
X155102115Y-70417738D01*
X155128564Y-70337995D01*
X155155632Y-70256389D01*
X155155632Y-70256387D01*
X155157797Y-70249861D01*
X155168500Y-70145400D01*
X155168500Y-69119600D01*
X155168163Y-69116350D01*
X155158238Y-69020693D01*
X155158237Y-69020689D01*
X155157526Y-69013835D01*
X155137895Y-68954992D01*
X155103868Y-68853003D01*
X155101550Y-68846055D01*
X155008478Y-68695652D01*
X154883303Y-68570695D01*
X154843494Y-68546156D01*
X154738968Y-68481725D01*
X154738966Y-68481724D01*
X154732738Y-68477885D01*
X154652995Y-68451436D01*
X154571389Y-68424368D01*
X154571387Y-68424368D01*
X154564861Y-68422203D01*
X154558025Y-68421503D01*
X154558022Y-68421502D01*
X154514969Y-68417091D01*
X154460400Y-68411500D01*
X153109600Y-68411500D01*
X153106354Y-68411837D01*
X153106350Y-68411837D01*
X153010693Y-68421762D01*
X153010689Y-68421763D01*
X153003835Y-68422474D01*
X152997299Y-68424655D01*
X152997297Y-68424655D01*
X152910410Y-68453643D01*
X152836055Y-68478450D01*
X152718798Y-68551011D01*
X152699999Y-68562644D01*
X152633696Y-68581500D01*
X151965200Y-68581500D01*
X151897079Y-68561498D01*
X151877853Y-68545157D01*
X151877580Y-68545460D01*
X151872668Y-68541037D01*
X151868253Y-68536134D01*
X151846671Y-68520454D01*
X151719094Y-68427763D01*
X151719093Y-68427762D01*
X151713752Y-68423882D01*
X151707724Y-68421198D01*
X151707722Y-68421197D01*
X151545319Y-68348891D01*
X151545318Y-68348891D01*
X151539288Y-68346206D01*
X151445888Y-68326353D01*
X151358944Y-68307872D01*
X151358939Y-68307872D01*
X151352487Y-68306500D01*
X151161513Y-68306500D01*
X151155061Y-68307872D01*
X151155056Y-68307872D01*
X151068112Y-68326353D01*
X150974712Y-68346206D01*
X150968682Y-68348891D01*
X150968681Y-68348891D01*
X150806278Y-68421197D01*
X150806276Y-68421198D01*
X150800248Y-68423882D01*
X150794907Y-68427762D01*
X150794906Y-68427763D01*
X150667329Y-68520454D01*
X150645747Y-68536134D01*
X150641332Y-68541037D01*
X150636420Y-68545460D01*
X150635295Y-68544211D01*
X150581986Y-68577051D01*
X150548800Y-68581500D01*
X146957450Y-68581500D01*
X146889329Y-68561498D01*
X146876229Y-68550941D01*
X146876175Y-68551011D01*
X146869915Y-68546155D01*
X146864307Y-68540547D01*
X146857483Y-68536511D01*
X146857480Y-68536509D01*
X146727927Y-68459892D01*
X146727928Y-68459892D01*
X146721101Y-68455855D01*
X146713490Y-68453644D01*
X146713488Y-68453643D01*
X146661269Y-68438472D01*
X146561331Y-68409438D01*
X146554926Y-68408934D01*
X146554921Y-68408933D01*
X146526458Y-68406693D01*
X146526450Y-68406693D01*
X146524002Y-68406500D01*
X144740998Y-68406500D01*
X144738550Y-68406693D01*
X144738542Y-68406693D01*
X144710079Y-68408933D01*
X144710074Y-68408934D01*
X144703669Y-68409438D01*
X144603731Y-68438472D01*
X144551512Y-68453643D01*
X144551510Y-68453644D01*
X144543899Y-68455855D01*
X144537072Y-68459892D01*
X144537073Y-68459892D01*
X144407520Y-68536509D01*
X144407517Y-68536511D01*
X144400693Y-68540547D01*
X144283047Y-68658193D01*
X144279011Y-68665017D01*
X144279009Y-68665020D01*
X144215393Y-68772589D01*
X144198355Y-68801399D01*
X144196144Y-68809010D01*
X144196143Y-68809012D01*
X144187192Y-68839824D01*
X144151938Y-68961169D01*
X144151434Y-68967574D01*
X144151433Y-68967579D01*
X144149245Y-68995386D01*
X144123959Y-69061727D01*
X144066821Y-69103867D01*
X144023633Y-69111500D01*
X142291367Y-69111500D01*
X142223246Y-69091498D01*
X142176753Y-69037842D01*
X142165755Y-68995386D01*
X142163567Y-68967579D01*
X142163566Y-68967574D01*
X142163062Y-68961169D01*
X142127808Y-68839824D01*
X142118857Y-68809012D01*
X142118856Y-68809010D01*
X142116645Y-68801399D01*
X142099607Y-68772589D01*
X142035991Y-68665020D01*
X142035989Y-68665017D01*
X142031953Y-68658193D01*
X141914307Y-68540547D01*
X141907483Y-68536511D01*
X141907480Y-68536509D01*
X141777927Y-68459892D01*
X141777928Y-68459892D01*
X141771101Y-68455855D01*
X141763490Y-68453644D01*
X141763488Y-68453643D01*
X141711269Y-68438472D01*
X141611331Y-68409438D01*
X141604926Y-68408934D01*
X141604921Y-68408933D01*
X141576458Y-68406693D01*
X141576450Y-68406693D01*
X141574002Y-68406500D01*
X139790998Y-68406500D01*
X139788550Y-68406693D01*
X139788542Y-68406693D01*
X139760079Y-68408933D01*
X139760074Y-68408934D01*
X139753669Y-68409438D01*
X139653731Y-68438472D01*
X139601512Y-68453643D01*
X139601510Y-68453644D01*
X139593899Y-68455855D01*
X139587072Y-68459892D01*
X139587073Y-68459892D01*
X139457520Y-68536509D01*
X139457517Y-68536511D01*
X139450693Y-68540547D01*
X139445085Y-68546155D01*
X139438825Y-68551011D01*
X139437656Y-68549504D01*
X139384333Y-68578621D01*
X139357550Y-68581500D01*
X138503200Y-68581500D01*
X138435079Y-68561498D01*
X138415853Y-68545157D01*
X138415580Y-68545460D01*
X138410668Y-68541037D01*
X138406253Y-68536134D01*
X138384671Y-68520454D01*
X138257094Y-68427763D01*
X138257093Y-68427762D01*
X138251752Y-68423882D01*
X138245724Y-68421198D01*
X138245722Y-68421197D01*
X138083319Y-68348891D01*
X138083318Y-68348891D01*
X138077288Y-68346206D01*
X137983888Y-68326353D01*
X137896944Y-68307872D01*
X137896939Y-68307872D01*
X137890487Y-68306500D01*
X137699513Y-68306500D01*
X137693061Y-68307872D01*
X137693056Y-68307872D01*
X137606112Y-68326353D01*
X137512712Y-68346206D01*
X137506682Y-68348891D01*
X137506681Y-68348891D01*
X137344278Y-68421197D01*
X137344276Y-68421198D01*
X137338248Y-68423882D01*
X137183747Y-68536134D01*
X137179326Y-68541044D01*
X137179325Y-68541045D01*
X137067698Y-68665020D01*
X137055960Y-68678056D01*
X136960473Y-68843444D01*
X136901458Y-69025072D01*
X136900768Y-69031633D01*
X136900768Y-69031635D01*
X136888752Y-69145965D01*
X136881496Y-69215000D01*
X136882186Y-69221565D01*
X136893010Y-69324546D01*
X136901458Y-69404928D01*
X136960473Y-69586556D01*
X136963776Y-69592278D01*
X136963777Y-69592279D01*
X136992022Y-69641200D01*
X137055960Y-69751944D01*
X137060378Y-69756851D01*
X137060379Y-69756852D01*
X137146905Y-69852949D01*
X137183747Y-69893866D01*
X137338248Y-70006118D01*
X137344276Y-70008802D01*
X137344278Y-70008803D01*
X137506689Y-70081113D01*
X137506694Y-70081115D01*
X137512712Y-70083794D01*
X137515224Y-70084328D01*
X137572597Y-70123562D01*
X137600231Y-70188960D01*
X137594885Y-70242253D01*
X137590292Y-70256389D01*
X137536458Y-70422072D01*
X137516496Y-70612000D01*
X137533797Y-70776607D01*
X137521025Y-70846444D01*
X137472523Y-70898290D01*
X137403690Y-70915685D01*
X137357239Y-70904883D01*
X137321323Y-70888892D01*
X137321315Y-70888889D01*
X137315288Y-70886206D01*
X137221888Y-70866353D01*
X137134944Y-70847872D01*
X137134939Y-70847872D01*
X137128487Y-70846500D01*
X136937513Y-70846500D01*
X136931061Y-70847872D01*
X136931056Y-70847872D01*
X136844112Y-70866353D01*
X136750712Y-70886206D01*
X136744682Y-70888891D01*
X136744681Y-70888891D01*
X136582278Y-70961197D01*
X136582276Y-70961198D01*
X136576248Y-70963882D01*
X136570907Y-70967762D01*
X136570906Y-70967763D01*
X136544967Y-70986609D01*
X136421747Y-71076134D01*
X136417326Y-71081044D01*
X136417325Y-71081045D01*
X136342068Y-71164627D01*
X136293960Y-71218056D01*
X136198473Y-71383444D01*
X136139458Y-71565072D01*
X136138768Y-71571633D01*
X136138768Y-71571635D01*
X136125079Y-71701877D01*
X136119496Y-71755000D01*
X136139458Y-71944928D01*
X136198473Y-72126556D01*
X136201776Y-72132278D01*
X136201777Y-72132279D01*
X136235686Y-72191010D01*
X136293960Y-72291944D01*
X136421747Y-72433866D01*
X136576248Y-72546118D01*
X136582276Y-72548802D01*
X136582278Y-72548803D01*
X136649855Y-72578890D01*
X136750712Y-72623794D01*
X136841205Y-72643029D01*
X136931056Y-72662128D01*
X136931061Y-72662128D01*
X136937513Y-72663500D01*
X137128487Y-72663500D01*
X137134939Y-72662128D01*
X137134944Y-72662128D01*
X137224795Y-72643029D01*
X137315288Y-72623794D01*
X137416145Y-72578890D01*
X137483722Y-72548803D01*
X137483724Y-72548802D01*
X137489752Y-72546118D01*
X137638539Y-72438018D01*
X137705405Y-72414160D01*
X137774557Y-72430240D01*
X137824037Y-72481154D01*
X137838137Y-72550736D01*
X137832432Y-72578890D01*
X137790458Y-72708072D01*
X137789768Y-72714633D01*
X137789768Y-72714635D01*
X137780977Y-72798279D01*
X137770496Y-72898000D01*
X137771186Y-72904565D01*
X137788970Y-73073767D01*
X137790458Y-73087928D01*
X137849473Y-73269556D01*
X137944960Y-73434944D01*
X137949378Y-73439851D01*
X137949379Y-73439852D01*
X138068325Y-73571955D01*
X138072747Y-73576866D01*
X138079548Y-73581807D01*
X138205265Y-73673146D01*
X138227248Y-73689118D01*
X138233276Y-73691802D01*
X138233278Y-73691803D01*
X138394929Y-73763774D01*
X138401712Y-73766794D01*
X138483342Y-73784145D01*
X138582056Y-73805128D01*
X138582061Y-73805128D01*
X138588513Y-73806500D01*
X138779487Y-73806500D01*
X138779487Y-73806965D01*
X138845300Y-73819002D01*
X138897146Y-73867504D01*
X138914540Y-73936337D01*
X138897750Y-73994538D01*
X138865473Y-74050444D01*
X138806458Y-74232072D01*
X138805768Y-74238633D01*
X138805768Y-74238635D01*
X138802441Y-74270292D01*
X138786496Y-74422000D01*
X138806458Y-74611928D01*
X138865473Y-74793556D01*
X138960960Y-74958944D01*
X139034137Y-75040215D01*
X139064853Y-75104221D01*
X139066500Y-75124524D01*
X139066500Y-75867233D01*
X139065973Y-75878416D01*
X139064298Y-75885909D01*
X139064547Y-75893835D01*
X139064547Y-75893836D01*
X139066438Y-75953986D01*
X139066500Y-75957945D01*
X139066500Y-75985856D01*
X139066997Y-75989790D01*
X139066997Y-75989791D01*
X139067005Y-75989856D01*
X139067938Y-76001693D01*
X139069327Y-76045889D01*
X139071566Y-76053595D01*
X139074978Y-76065339D01*
X139078987Y-76084700D01*
X139081526Y-76104797D01*
X139084445Y-76112168D01*
X139084445Y-76112170D01*
X139097804Y-76145912D01*
X139101649Y-76157142D01*
X139113982Y-76199593D01*
X139118015Y-76206412D01*
X139118017Y-76206417D01*
X139124293Y-76217028D01*
X139132988Y-76234776D01*
X139140448Y-76253617D01*
X139145110Y-76260033D01*
X139145110Y-76260034D01*
X139166436Y-76289387D01*
X139172952Y-76299307D01*
X139195458Y-76337362D01*
X139209779Y-76351683D01*
X139222619Y-76366716D01*
X139234528Y-76383107D01*
X139240634Y-76388158D01*
X139268605Y-76411298D01*
X139277384Y-76419288D01*
X141038878Y-78180782D01*
X141072904Y-78243094D01*
X141075092Y-78256703D01*
X141092458Y-78421928D01*
X141151473Y-78603556D01*
X141246960Y-78768944D01*
X141374747Y-78910866D01*
X141529248Y-79023118D01*
X141535276Y-79025802D01*
X141535278Y-79025803D01*
X141697681Y-79098109D01*
X141703712Y-79100794D01*
X141772395Y-79115393D01*
X141884056Y-79139128D01*
X141884061Y-79139128D01*
X141890513Y-79140500D01*
X142081487Y-79140500D01*
X142087939Y-79139128D01*
X142087944Y-79139128D01*
X142199605Y-79115393D01*
X142268288Y-79100794D01*
X142274319Y-79098109D01*
X142436722Y-79025803D01*
X142436724Y-79025802D01*
X142442752Y-79023118D01*
X142597253Y-78910866D01*
X142725040Y-78768944D01*
X142820527Y-78603556D01*
X142879542Y-78421928D01*
X142888891Y-78332982D01*
X142898814Y-78238565D01*
X142899504Y-78232000D01*
X142885896Y-78102526D01*
X142880232Y-78048635D01*
X142880232Y-78048633D01*
X142879542Y-78042072D01*
X142820527Y-77860444D01*
X142810503Y-77843081D01*
X142728341Y-77700774D01*
X142725040Y-77695056D01*
X142656446Y-77618874D01*
X142601675Y-77558045D01*
X142601674Y-77558044D01*
X142597253Y-77553134D01*
X142479735Y-77467752D01*
X142448094Y-77444763D01*
X142448093Y-77444762D01*
X142442752Y-77440882D01*
X142436724Y-77438198D01*
X142436722Y-77438197D01*
X142274319Y-77365891D01*
X142274318Y-77365891D01*
X142268288Y-77363206D01*
X142158323Y-77339832D01*
X142087944Y-77324872D01*
X142087939Y-77324872D01*
X142081487Y-77323500D01*
X142025595Y-77323500D01*
X141957474Y-77303498D01*
X141936500Y-77286595D01*
X140703500Y-76053595D01*
X140669474Y-75991283D01*
X140674539Y-75920468D01*
X140717086Y-75863632D01*
X140783606Y-75838821D01*
X140792595Y-75838500D01*
X140811487Y-75838500D01*
X140817939Y-75837128D01*
X140817944Y-75837128D01*
X140904888Y-75818647D01*
X140998288Y-75798794D01*
X141022869Y-75787850D01*
X141166722Y-75723803D01*
X141166724Y-75723802D01*
X141172752Y-75721118D01*
X141327253Y-75608866D01*
X141455040Y-75466944D01*
X141550527Y-75301556D01*
X141609542Y-75119928D01*
X141611298Y-75103227D01*
X141628814Y-74936565D01*
X141629504Y-74930000D01*
X141609542Y-74740072D01*
X141550527Y-74558444D01*
X141455040Y-74393056D01*
X141375254Y-74304444D01*
X141348364Y-74274580D01*
X141317646Y-74210573D01*
X141316000Y-74190270D01*
X141316000Y-73959500D01*
X141336002Y-73891379D01*
X141389658Y-73844886D01*
X141442000Y-73833500D01*
X141574002Y-73833500D01*
X141576450Y-73833307D01*
X141576458Y-73833307D01*
X141604921Y-73831067D01*
X141604926Y-73831066D01*
X141611331Y-73830562D01*
X141711269Y-73801528D01*
X141763488Y-73786357D01*
X141763490Y-73786356D01*
X141771101Y-73784145D01*
X141840447Y-73743134D01*
X141907480Y-73703491D01*
X141907483Y-73703489D01*
X141914307Y-73699453D01*
X142031953Y-73581807D01*
X142035989Y-73574983D01*
X142035991Y-73574980D01*
X142112608Y-73445427D01*
X142116645Y-73438601D01*
X142163062Y-73278831D01*
X142165755Y-73244614D01*
X142191041Y-73178273D01*
X142248179Y-73136133D01*
X142291367Y-73128500D01*
X144023633Y-73128500D01*
X144091754Y-73148502D01*
X144138247Y-73202158D01*
X144149245Y-73244614D01*
X144151938Y-73278831D01*
X144198355Y-73438601D01*
X144202392Y-73445427D01*
X144279009Y-73574980D01*
X144279011Y-73574983D01*
X144283047Y-73581807D01*
X144400693Y-73699453D01*
X144407517Y-73703489D01*
X144407520Y-73703491D01*
X144474553Y-73743134D01*
X144543899Y-73784145D01*
X144551510Y-73786356D01*
X144551512Y-73786357D01*
X144603731Y-73801528D01*
X144703669Y-73830562D01*
X144710074Y-73831066D01*
X144710079Y-73831067D01*
X144738542Y-73833307D01*
X144738550Y-73833307D01*
X144740998Y-73833500D01*
X145005500Y-73833500D01*
X145073621Y-73853502D01*
X145120114Y-73907158D01*
X145131500Y-73959500D01*
X145131500Y-80850500D01*
X145111498Y-80918621D01*
X145057842Y-80965114D01*
X145005500Y-80976500D01*
X144214600Y-80976500D01*
X144211354Y-80976837D01*
X144211350Y-80976837D01*
X144115693Y-80986762D01*
X144115689Y-80986763D01*
X144108835Y-80987474D01*
X144102299Y-80989655D01*
X144102297Y-80989655D01*
X144021159Y-81016725D01*
X143941055Y-81043450D01*
X143790652Y-81136522D01*
X143665695Y-81261697D01*
X143664149Y-81260154D01*
X143614962Y-81295021D01*
X143544039Y-81298247D01*
X143482630Y-81262617D01*
X143466862Y-81242165D01*
X143459738Y-81230652D01*
X143334563Y-81105695D01*
X143315120Y-81093710D01*
X143190228Y-81016725D01*
X143190226Y-81016724D01*
X143183998Y-81012885D01*
X143074300Y-80976500D01*
X143022649Y-80959368D01*
X143022647Y-80959368D01*
X143016121Y-80957203D01*
X143009285Y-80956503D01*
X143009282Y-80956502D01*
X142966229Y-80952091D01*
X142911660Y-80946500D01*
X142238354Y-80946500D01*
X142170233Y-80926498D01*
X142149259Y-80909595D01*
X139587412Y-78347747D01*
X139579872Y-78339461D01*
X139575760Y-78332982D01*
X139526108Y-78286356D01*
X139523267Y-78283602D01*
X139503530Y-78263865D01*
X139500333Y-78261385D01*
X139491311Y-78253680D01*
X139464860Y-78228841D01*
X139459081Y-78223414D01*
X139452135Y-78219595D01*
X139452132Y-78219593D01*
X139441326Y-78213652D01*
X139424807Y-78202801D01*
X139424343Y-78202441D01*
X139408801Y-78190386D01*
X139401532Y-78187241D01*
X139401528Y-78187238D01*
X139368223Y-78172826D01*
X139357573Y-78167609D01*
X139318820Y-78146305D01*
X139299197Y-78141267D01*
X139280494Y-78134863D01*
X139269180Y-78129967D01*
X139269179Y-78129967D01*
X139261905Y-78126819D01*
X139254082Y-78125580D01*
X139254072Y-78125577D01*
X139218236Y-78119901D01*
X139206616Y-78117495D01*
X139171471Y-78108472D01*
X139171470Y-78108472D01*
X139163790Y-78106500D01*
X139143536Y-78106500D01*
X139123825Y-78104949D01*
X139111646Y-78103020D01*
X139103817Y-78101780D01*
X139095925Y-78102526D01*
X139059799Y-78105941D01*
X139047941Y-78106500D01*
X138277665Y-78106500D01*
X138209544Y-78086498D01*
X138183613Y-78063016D01*
X138183478Y-78063152D01*
X138180693Y-78060372D01*
X138058303Y-77938195D01*
X138052072Y-77934354D01*
X137913968Y-77849225D01*
X137913966Y-77849224D01*
X137907738Y-77845385D01*
X137827995Y-77818936D01*
X137746389Y-77791868D01*
X137746387Y-77791868D01*
X137739861Y-77789703D01*
X137733025Y-77789003D01*
X137733022Y-77789002D01*
X137689969Y-77784591D01*
X137635400Y-77779000D01*
X137147095Y-77779000D01*
X137078974Y-77758998D01*
X137058000Y-77742095D01*
X137027000Y-77711095D01*
X136992974Y-77648783D01*
X136998039Y-77577968D01*
X137040586Y-77521132D01*
X137107106Y-77496321D01*
X137116095Y-77496000D01*
X137635400Y-77496000D01*
X137638646Y-77495663D01*
X137638650Y-77495663D01*
X137734308Y-77485738D01*
X137734312Y-77485737D01*
X137741166Y-77485026D01*
X137747702Y-77482845D01*
X137747704Y-77482845D01*
X137901998Y-77431368D01*
X137908946Y-77429050D01*
X138059348Y-77335978D01*
X138184305Y-77210803D01*
X138192877Y-77196897D01*
X138273275Y-77066468D01*
X138273276Y-77066466D01*
X138277115Y-77060238D01*
X138332797Y-76892361D01*
X138343500Y-76787900D01*
X138343500Y-75612100D01*
X138332526Y-75506334D01*
X138319385Y-75466944D01*
X138278868Y-75345502D01*
X138276550Y-75338554D01*
X138183478Y-75188152D01*
X138151876Y-75156605D01*
X138061009Y-75065896D01*
X138026930Y-75003613D01*
X138030194Y-74937787D01*
X138051500Y-74872214D01*
X138051501Y-74872210D01*
X138053542Y-74865928D01*
X138073504Y-74676000D01*
X138053542Y-74486072D01*
X137994527Y-74304444D01*
X137989075Y-74295000D01*
X137902341Y-74144774D01*
X137899040Y-74139056D01*
X137819254Y-74050444D01*
X137775675Y-74002045D01*
X137775674Y-74002044D01*
X137771253Y-73997134D01*
X137646032Y-73906155D01*
X137622094Y-73888763D01*
X137622093Y-73888762D01*
X137616752Y-73884882D01*
X137610724Y-73882198D01*
X137610722Y-73882197D01*
X137448319Y-73809891D01*
X137448318Y-73809891D01*
X137442288Y-73807206D01*
X137344202Y-73786357D01*
X137261944Y-73768872D01*
X137261939Y-73768872D01*
X137255487Y-73767500D01*
X137064513Y-73767500D01*
X137058061Y-73768872D01*
X137058056Y-73768872D01*
X136975798Y-73786357D01*
X136877712Y-73807206D01*
X136871682Y-73809891D01*
X136871681Y-73809891D01*
X136709278Y-73882197D01*
X136709276Y-73882198D01*
X136703248Y-73884882D01*
X136697907Y-73888762D01*
X136697906Y-73888763D01*
X136673968Y-73906155D01*
X136548747Y-73997134D01*
X136544326Y-74002044D01*
X136544325Y-74002045D01*
X136500747Y-74050444D01*
X136420960Y-74139056D01*
X136417659Y-74144774D01*
X136330926Y-74295000D01*
X136325473Y-74304444D01*
X136266458Y-74486072D01*
X136246496Y-74676000D01*
X136266458Y-74865928D01*
X136287277Y-74930000D01*
X136289755Y-74937627D01*
X136291783Y-75008595D01*
X136259095Y-75065581D01*
X136135695Y-75189197D01*
X136131855Y-75195427D01*
X136131854Y-75195428D01*
X136066436Y-75301556D01*
X136042885Y-75339762D01*
X136040581Y-75346709D01*
X136002499Y-75461524D01*
X135987203Y-75507639D01*
X135976500Y-75612100D01*
X135976500Y-76356405D01*
X135956498Y-76424526D01*
X135902842Y-76471019D01*
X135832568Y-76481123D01*
X135767988Y-76451629D01*
X135761405Y-76445500D01*
X133662122Y-74346217D01*
X133628096Y-74283905D01*
X133625907Y-74270292D01*
X133623894Y-74251134D01*
X133608542Y-74105072D01*
X133549527Y-73923444D01*
X133454040Y-73758056D01*
X133364400Y-73658500D01*
X133330675Y-73621045D01*
X133330674Y-73621044D01*
X133326253Y-73616134D01*
X133171752Y-73503882D01*
X133165724Y-73501198D01*
X133165722Y-73501197D01*
X133003319Y-73428891D01*
X133003318Y-73428891D01*
X132997288Y-73426206D01*
X132903887Y-73406353D01*
X132816944Y-73387872D01*
X132816939Y-73387872D01*
X132810487Y-73386500D01*
X132754594Y-73386500D01*
X132686473Y-73366498D01*
X132665499Y-73349595D01*
X131401530Y-72085625D01*
X131367504Y-72023313D01*
X131372759Y-71951992D01*
X131465751Y-71705895D01*
X131465752Y-71705891D01*
X131467269Y-71701877D01*
X131524166Y-71453450D01*
X131527449Y-71439117D01*
X131527450Y-71439113D01*
X131528407Y-71434933D01*
X131531556Y-71399655D01*
X131552531Y-71164627D01*
X131552531Y-71164625D01*
X131552751Y-71162161D01*
X131553193Y-71120000D01*
X131552830Y-71114674D01*
X131534859Y-70851055D01*
X131534858Y-70851049D01*
X131534567Y-70846778D01*
X131533687Y-70842526D01*
X131479901Y-70582809D01*
X131479032Y-70578612D01*
X131387617Y-70320465D01*
X131262013Y-70077112D01*
X131252040Y-70062921D01*
X131127549Y-69885789D01*
X131104545Y-69853057D01*
X130918125Y-69652445D01*
X130914810Y-69649731D01*
X130914806Y-69649728D01*
X130753304Y-69517540D01*
X130706205Y-69478990D01*
X130472704Y-69335901D01*
X130468768Y-69334173D01*
X130225873Y-69227549D01*
X130225869Y-69227548D01*
X130221945Y-69225825D01*
X129958566Y-69150800D01*
X129954324Y-69150196D01*
X129954318Y-69150195D01*
X129739346Y-69119600D01*
X129687443Y-69112213D01*
X129543589Y-69111460D01*
X129417877Y-69110802D01*
X129417871Y-69110802D01*
X129413591Y-69110780D01*
X129409347Y-69111339D01*
X129409343Y-69111339D01*
X129290302Y-69127011D01*
X129142078Y-69146525D01*
X129137938Y-69147658D01*
X129137936Y-69147658D01*
X129070037Y-69166233D01*
X128877928Y-69218788D01*
X128873980Y-69220472D01*
X128629982Y-69324546D01*
X128629978Y-69324548D01*
X128626030Y-69326232D01*
X128606125Y-69338145D01*
X128394725Y-69464664D01*
X128394721Y-69464667D01*
X128391043Y-69466868D01*
X128177318Y-69638094D01*
X127988808Y-69836742D01*
X127829002Y-70059136D01*
X127700857Y-70301161D01*
X127699385Y-70305184D01*
X127699383Y-70305188D01*
X127642623Y-70460292D01*
X127606743Y-70558337D01*
X127548404Y-70825907D01*
X127526917Y-71098918D01*
X126468500Y-71098918D01*
X126468500Y-70059594D01*
X126488502Y-69991473D01*
X126505405Y-69970499D01*
X131014499Y-65461405D01*
X131076811Y-65427379D01*
X131103594Y-65424500D01*
X131159487Y-65424500D01*
X131165939Y-65423128D01*
X131165944Y-65423128D01*
X131252888Y-65404647D01*
X131346288Y-65384794D01*
X131352319Y-65382109D01*
X131514722Y-65309803D01*
X131514724Y-65309802D01*
X131520752Y-65307118D01*
X131675253Y-65194866D01*
X131803040Y-65052944D01*
X131898527Y-64887556D01*
X131957542Y-64705928D01*
X131958351Y-64698238D01*
X131973266Y-64556324D01*
X132000279Y-64490668D01*
X132058501Y-64450038D01*
X132129446Y-64447335D01*
X132187593Y-64480322D01*
X132256697Y-64549305D01*
X132262927Y-64553145D01*
X132262928Y-64553146D01*
X132400090Y-64637694D01*
X132407262Y-64642115D01*
X132487005Y-64668564D01*
X132568611Y-64695632D01*
X132568613Y-64695632D01*
X132575139Y-64697797D01*
X132581975Y-64698497D01*
X132581978Y-64698498D01*
X132625031Y-64702909D01*
X132679600Y-64708500D01*
X133480400Y-64708500D01*
X133483646Y-64708163D01*
X133483650Y-64708163D01*
X133579308Y-64698238D01*
X133579312Y-64698237D01*
X133586166Y-64697526D01*
X133592702Y-64695345D01*
X133592704Y-64695345D01*
X133724806Y-64651272D01*
X133753946Y-64641550D01*
X133904348Y-64548478D01*
X134029305Y-64423303D01*
X134038430Y-64408500D01*
X134118275Y-64278968D01*
X134118276Y-64278966D01*
X134122115Y-64272738D01*
X134139663Y-64219832D01*
X134180094Y-64161473D01*
X134245658Y-64134236D01*
X134259256Y-64133500D01*
X135689800Y-64133500D01*
X135757921Y-64153502D01*
X135777147Y-64169843D01*
X135777420Y-64169540D01*
X135782332Y-64173963D01*
X135786747Y-64178866D01*
X135941248Y-64291118D01*
X135947276Y-64293802D01*
X135947278Y-64293803D01*
X136109681Y-64366109D01*
X136115712Y-64368794D01*
X136209113Y-64388647D01*
X136296056Y-64407128D01*
X136296061Y-64407128D01*
X136302513Y-64408500D01*
X136493487Y-64408500D01*
X136499939Y-64407128D01*
X136499944Y-64407128D01*
X136586887Y-64388647D01*
X136680288Y-64368794D01*
X136686319Y-64366109D01*
X136848722Y-64293803D01*
X136848724Y-64293802D01*
X136854752Y-64291118D01*
X137009253Y-64178866D01*
X137050101Y-64133500D01*
X137132621Y-64041852D01*
X137132622Y-64041851D01*
X137137040Y-64036944D01*
X137232527Y-63871556D01*
X137291542Y-63689928D01*
X137311504Y-63500000D01*
X137291542Y-63310072D01*
X137232527Y-63128444D01*
X137137040Y-62963056D01*
X137070010Y-62888611D01*
X137013675Y-62826045D01*
X137013674Y-62826044D01*
X137009253Y-62821134D01*
X136910157Y-62749136D01*
X136860094Y-62712763D01*
X136860093Y-62712762D01*
X136854752Y-62708882D01*
X136848724Y-62706198D01*
X136848722Y-62706197D01*
X136686319Y-62633891D01*
X136686318Y-62633891D01*
X136680288Y-62631206D01*
X136586887Y-62611353D01*
X136499944Y-62592872D01*
X136499939Y-62592872D01*
X136493487Y-62591500D01*
X136302513Y-62591500D01*
X136296061Y-62592872D01*
X136296056Y-62592872D01*
X136209113Y-62611353D01*
X136115712Y-62631206D01*
X136109682Y-62633891D01*
X136109681Y-62633891D01*
X135947278Y-62706197D01*
X135947276Y-62706198D01*
X135941248Y-62708882D01*
X135935907Y-62712762D01*
X135935906Y-62712763D01*
X135842844Y-62780377D01*
X135786747Y-62821134D01*
X135782332Y-62826037D01*
X135777420Y-62830460D01*
X135776295Y-62829211D01*
X135722986Y-62862051D01*
X135689800Y-62866500D01*
X134259197Y-62866500D01*
X134191076Y-62846498D01*
X134144583Y-62792842D01*
X134139674Y-62780377D01*
X134123867Y-62732998D01*
X134123866Y-62732996D01*
X134121550Y-62726054D01*
X134028478Y-62575652D01*
X133903303Y-62450695D01*
X133897072Y-62446854D01*
X133758968Y-62361725D01*
X133758966Y-62361724D01*
X133752738Y-62357885D01*
X133592254Y-62304655D01*
X133591389Y-62304368D01*
X133591387Y-62304368D01*
X133584861Y-62302203D01*
X133578025Y-62301503D01*
X133578022Y-62301502D01*
X133534969Y-62297091D01*
X133480400Y-62291500D01*
X132679600Y-62291500D01*
X132676354Y-62291837D01*
X132676350Y-62291837D01*
X132580692Y-62301762D01*
X132580688Y-62301763D01*
X132573834Y-62302474D01*
X132567298Y-62304655D01*
X132567296Y-62304655D01*
X132435194Y-62348728D01*
X132406054Y-62358450D01*
X132255652Y-62451522D01*
X132250479Y-62456704D01*
X132169216Y-62538109D01*
X132106934Y-62572188D01*
X132036114Y-62567185D01*
X131991025Y-62538264D01*
X131908483Y-62455866D01*
X131903303Y-62450695D01*
X131897072Y-62446854D01*
X131758968Y-62361725D01*
X131758966Y-62361724D01*
X131752738Y-62357885D01*
X131592254Y-62304655D01*
X131591389Y-62304368D01*
X131591387Y-62304368D01*
X131584861Y-62302203D01*
X131578025Y-62301503D01*
X131578022Y-62301502D01*
X131534969Y-62297091D01*
X131480400Y-62291500D01*
X130679600Y-62291500D01*
X130676354Y-62291837D01*
X130676350Y-62291837D01*
X130580692Y-62301762D01*
X130580688Y-62301763D01*
X130573834Y-62302474D01*
X130567298Y-62304655D01*
X130567296Y-62304655D01*
X130435194Y-62348728D01*
X130406054Y-62358450D01*
X130255652Y-62451522D01*
X130130695Y-62576697D01*
X130126855Y-62582927D01*
X130126854Y-62582928D01*
X130049215Y-62708882D01*
X130037885Y-62727262D01*
X129982203Y-62895139D01*
X129971500Y-62999600D01*
X129971500Y-64000400D01*
X129971837Y-64003646D01*
X129971837Y-64003650D01*
X129975292Y-64036944D01*
X129982474Y-64106166D01*
X129984655Y-64112702D01*
X129984655Y-64112704D01*
X130000926Y-64161473D01*
X130038450Y-64273946D01*
X130042306Y-64280177D01*
X130128034Y-64418712D01*
X130146872Y-64487164D01*
X130125711Y-64554934D01*
X130109985Y-64574110D01*
X125609500Y-69074595D01*
X125547188Y-69108621D01*
X125520405Y-69111500D01*
X122911866Y-69111500D01*
X122849684Y-69118255D01*
X122713295Y-69169385D01*
X122596739Y-69256739D01*
X122509385Y-69373295D01*
X122458255Y-69509684D01*
X122451500Y-69571866D01*
X122451500Y-72668134D01*
X118872500Y-72668134D01*
X118872500Y-61594500D01*
X118892502Y-61526379D01*
X118946158Y-61479886D01*
X118998500Y-61468500D01*
X158369500Y-61468500D01*
X158437621Y-61488502D01*
G37*
%TD.AperFunction*%
M02*
